<?xml version="1.0" encoding="utf-8"?>
<!-- Generator: Adobe Illustrator 22.0.1, SVG Export Plug-In . SVG Version: 6.00 Build 0)  -->
<svg version="1.1" id="Layer_1" xmlns="http://www.w3.org/2000/svg" xmlns:xlink="http://www.w3.org/1999/xlink" x="0px" y="0px"
	 viewBox="0 0 640 480" style="enable-background:new 0 0 640 480;" xml:space="preserve">
<path d="M532.4,431.1L532.4,431.1L424,322.7l2.4-2.9c26.5-32.3,41.1-73.1,41.1-114.9c0-100-81.3-181.3-181.3-181.3
	S104.8,105,104.8,204.9c0,100,81.3,181.3,181.3,181.3c41.8,0,82.6-14.6,114.8-41l2.9-2.4l108.4,108.3c5.4,5.4,14.8,5.4,20.2,0
	c2.7-2.7,4.2-6.2,4.2-10C536.6,437.4,535.1,433.8,532.4,431.1z M286.1,357.5c-84.2,0-152.7-68.5-152.7-152.6
	c0-84.2,68.5-152.7,152.7-152.7s152.7,68.5,152.7,152.7C438.8,289.1,370.3,357.5,286.1,357.5z"/>
</svg>
