<?xml version="1.0" encoding="utf-8"?>
<!-- Generator: Adobe Illustrator 22.0.1, SVG Export Plug-In . SVG Version: 6.00 Build 0)  -->
<svg version="1.1" id="Layer_1" xmlns="http://www.w3.org/2000/svg" xmlns:xlink="http://www.w3.org/1999/xlink" x="0px" y="0px"
	 viewBox="0 0 640 480" style="enable-background:new 0 0 640 480;" xml:space="preserve">
<path d="M534.6,57.3c-26.8-26.8-62.3-41.5-100.2-41.5c-37.9,0-73.5,14.8-100.3,41.6l-14,14l-14.2-14.2
	c-26.8-26.8-62.6-41.7-100.5-41.7c-37.8,0-73.4,14.8-100.1,41.5c-26.8,26.8-41.6,62.4-41.5,100.3c0,37.9,14.9,73.4,41.7,100.2
	l204,204c2.8,2.8,6.6,4.3,10.3,4.3c3.7,0,7.5-1.4,10.3-4.2L534.4,258c26.8-26.8,41.6-62.4,41.6-100.4
	C576.1,119.7,561.4,84.1,534.6,57.3z M513.7,237.2L319.7,430.5L126,236.9c-21.3-21.3-33-49.5-33-79.6c0-30.1,11.6-58.3,32.9-79.5
	c21.2-21.2,49.4-32.9,79.4-32.9c30.1,0,58.4,11.7,79.7,33l24.5,24.5c5.8,5.8,15,5.8,20.7,0l24.3-24.3c21.3-21.3,49.6-33,79.6-33
	c30,0,58.2,11.7,79.5,32.9c21.3,21.3,32.9,49.5,32.9,79.6C546.8,187.7,535,215.9,513.7,237.2z"/>
</svg>
