<?xml version="1.0" encoding="utf-8"?>
<!-- Generator: Adobe Illustrator 22.0.1, SVG Export Plug-In . SVG Version: 6.00 Build 0)  -->
<svg version="1.1" id="Layer_1" xmlns="http://www.w3.org/2000/svg" xmlns:xlink="http://www.w3.org/1999/xlink" x="0px" y="0px"
	 viewBox="0 0 640 480" style="enable-background:new 0 0 640 480;" xml:space="preserve">
<path d="M406.6,301.7l-12.2-4.3l11.1-6.7c44.7-27.2,71.5-75.1,71.5-127.9c0-40-15.7-77.8-44.2-106.3
	c-28.5-28.5-66.3-44.2-106.3-44.2c-83,0-150.5,67.5-150.5,150.5c0,52.9,26.7,100.7,71.5,127.9l10.8,6.6l-11.8,4.4
	c-74.3,27.9-130.2,91.9-147.4,168.3h22.2h4.5h401.4h5.9h20.9C536.7,391.8,480.9,327.7,406.6,301.7z M202.7,162.8
	c0-68.2,55.5-123.6,123.6-123.6S450,94.6,450,162.8s-55.5,123.6-123.6,123.6S202.7,230.9,202.7,162.8z M133.3,445.4
	c12.8-33.5,34.4-63.4,62.6-86.2c36.6-29.6,82.9-45.9,130.4-45.9s93.8,16.3,130.4,45.9c28.2,22.8,49.8,52.7,62.6,86.2H133.3z"/>
</svg>
